{
  "source": "C:\\Users\\Peter\\Desktop\\stuff\\MIUN\\quantitative_research\\video_compression\\videos\\BVI-HD\\BVI-HD_CDVL_videos\\ORIG\\Typing_1920x1080_60fps.mp4",
  "output": "C:\\Users\\Peter\\Desktop\\stuff\\MIUN\\quantitative_research\\video_compression\\compressed_videos\\BVI-HD\\av1\\2\\Typing_1920x1080_60fps_av1.mkv",
  "codec": "av1",
  "ok": "Input #0, mov,mp4,m4a,3gp,3g2,mj2, from 'C:\\Users\\Peter\\Desktop\\stuff\\MIUN\\quantitative_research\\video_compression\\videos\\BVI-HD\\BVI-HD_CDVL_videos\\ORIG\\Typing_1920x1080_60fps.mp4':\n  Metadata:\n    major_brand     : isom\n    minor_version   : 512\n    compatible_brands: isomiso2avc1mp41\n    encoder         : Lavf54.28.101\n  Duration: 00:00:05.00, start: 0.000000, bitrate: 203453 kb/s\n  Stream #0:0[0x1](und): Video: h264 (High 4:4:4 Predictive) (avc1 / 0x31637661), yuv420p(progressive), 1920x1080, 203448 kb/s, 60 fps, 60 tbr, 60 tbn (default)\n    Metadata:\n      handler_name    : VideoHandler\n      vendor_id       : [0][0][0][0]\n[out#0/matroska @ 000001bc48339000] Codec AVOption b:a (set bitrate (in bits/s)) has not been used for any stream. The most likely reason is either wrong type (e.g. a video option with no video streams) or that it is a private option of some decoder which was not actually used for any stream.\nStream mapping:\n  Stream #0:0 -> #0:0 (h264 (native) -> av1 (libsvtav1))\nPress [q] to stop, [?] for help\nSvt[info]: -------------------------------------------\nSvt[info]: SVT [version]:\tSVT-AV1 Encoder Lib v3.1.0-19-g6ecfe8ec\nSvt[info]: SVT [build]  :\tGCC 15.2.0\t 64 bit\nSvt[info]: LIB Build date: Aug 17 2025 11:37:13\nSvt[info]: -------------------------------------------\nSvt[info]: Level of Parallelism: 5\nSvt[info]: Number of PPCS 93\nSvt[info]: [asm level on system : up to avx2]\nSvt[info]: [asm level selected : up to avx2]\nSvt[info]: -------------------------------------------\nSvt[info]: SVT [config]: main profile\ttier (auto)\tlevel (auto)\nSvt[info]: SVT [config]: width / height / fps numerator / fps denominator \t\t: 1920 / 1080 / 60 / 1\nSvt[info]: SVT [config]: bit-depth / color format \t\t\t\t\t: 8 / YUV420\nSvt[info]: SVT [config]: preset / tune / pred struct \t\t\t\t\t: 4 / PSNR / random access\nSvt[info]: SVT [config]: gop size / mini-gop size / key-frame type \t\t\t: 321 / 16 / key frame\nSvt[info]: SVT [config]: BRC mode / target bitrate (kbps)\t\t\t\t: VBR / 2000 \nSvt[info]: SVT [config]: AQ mode / Variance Boost \t\t\t\t\t: 2 / 0\nSvt[info]: SVT [config]: sharpness / luminance-based QP bias \t\t\t\t: 0 / 0\nSvt[info]: SVT [config]: QP scale compress strength \t\t\t\t\t: 0\nSvt[info]: -------------------------------------------\nOutput #0, matroska, to 'C:\\Users\\Peter\\Desktop\\stuff\\MIUN\\quantitative_research\\video_compression\\compressed_videos\\BVI-HD\\av1\\2\\Typing_1920x1080_60fps_av1.mkv':\n  Metadata:\n    major_brand     : isom\n    minor_version   : 512\n    compatible_brands: isomiso2avc1mp41\n    encoder         : Lavf62.3.100\n  Stream #0:0(und): Video: av1 (AV01 / 0x31305641), yuv420p(tv, progressive), 1920x1080, q=2-31, 2000 kb/s, 60 fps, 1k tbn (default)\n    Metadata:\n      encoder         : Lavc62.11.100 libsvtav1\n      handler_name    : VideoHandler\n      vendor_id       : [0][0][0][0]\n    Side data:\n      cpb: bitrate max/min/avg: 0/0/2000000 buffer size: 2000000 vbv_delay: N/A\nframe=    0 fps=0.0 q=0.0 size=       0KiB time=N/A bitrate=N/A speed=N/A elapsed=0:00:01.07    \nframe=    0 fps=0.0 q=0.0 size=       0KiB time=N/A bitrate=N/A speed=N/A elapsed=0:00:01.60    \nframe=    0 fps=0.0 q=0.0 size=       0KiB time=N/A bitrate=N/A speed=N/A elapsed=0:00:02.16    \nframe=    0 fps=0.0 q=0.0 size=       0KiB time=N/A bitrate=N/A speed=N/A elapsed=0:00:02.68    \nframe=    0 fps=0.0 q=0.0 size=       0KiB time=N/A bitrate=N/A speed=N/A elapsed=0:00:03.20    \nframe=    0 fps=0.0 q=0.0 size=       0KiB time=N/A bitrate=N/A speed=N/A elapsed=0:00:03.77    \nframe=    0 fps=0.0 q=0.0 size=       0KiB time=N/A bitrate=N/A speed=N/A elapsed=0:00:04.29    \nframe=    0 fps=0.0 q=0.0 size=       0KiB time=N/A bitrate=N/A speed=N/A elapsed=0:00:04.84    \nframe=    0 fps=0.0 q=0.0 size=       0KiB time=N/A bitrate=N/A speed=N/A elapsed=0:00:05.38    \nframe=    0 fps=0.0 q=0.0 size=       0KiB time=N/A bitrate=N/A speed=N/A elapsed=0:00:05.95    \nframe=    0 fps=0.0 q=0.0 size=       0KiB time=N/A bitrate=N/A speed=N/A elapsed=0:00:06.48    \nframe=    1 fps=0.1 q=8.0 size=       1KiB time=00:00:00.00 bitrate=N/A speed=   0x elapsed=0:00:07.01    \nframe=    1 fps=0.1 q=8.0 size=       1KiB time=00:00:00.00 bitrate=N/A speed=   0x elapsed=0:00:07.52    \nframe=    7 fps=0.9 q=37.0 size=       1KiB time=00:00:00.10 bitrate=  57.0kbits/s speed=0.0124x elapsed=0:00:08.04    \nframe=   10 fps=1.2 q=40.0 size=       1KiB time=00:00:00.15 bitrate=  38.0kbits/s speed=0.0174x elapsed=0:00:08.60    \nframe=   15 fps=1.6 q=36.0 size=       1KiB time=00:00:00.23 bitrate=  24.4kbits/s speed=0.0255x elapsed=0:00:09.15    \nframe=   20 fps=2.1 q=33.0 size=       1KiB time=00:00:00.31 bitrate=  18.0kbits/s speed=0.0327x elapsed=0:00:09.68    \nframe=   23 fps=2.3 q=34.0 size=       1KiB time=00:00:00.36 bitrate=  15.5kbits/s speed=0.0359x elapsed=0:00:10.21    \nframe=   28 fps=2.6 q=32.0 size=       1KiB time=00:00:00.45 bitrate=  12.7kbits/s speed=0.0418x elapsed=0:00:10.76    \nframe=   35 fps=3.1 q=36.0 size=       1KiB time=00:00:00.53 bitrate=  10.7kbits/s speed=0.047x elapsed=0:00:11.35    \nframe=   39 fps=3.3 q=34.0 size=       1KiB time=00:00:00.61 bitrate=   9.2kbits/s speed=0.0517x elapsed=0:00:11.91    \nframe=   43 fps=3.4 q=34.0 size=       1KiB time=00:00:00.70 bitrate=   8.1kbits/s speed=0.056x elapsed=0:00:12.50    \nframe=   48 fps=3.7 q=29.0 size=       1KiB time=00:00:00.78 bitrate=   7.3kbits/s speed=0.0599x elapsed=0:00:13.06    \nframe=   53 fps=3.9 q=34.0 size=       1KiB time=00:00:00.86 bitrate=   6.6kbits/s speed=0.0634x elapsed=0:00:13.66    \nframe=   56 fps=3.9 q=27.0 size=       1KiB time=00:00:00.91 bitrate=   6.2kbits/s speed=0.0645x elapsed=0:00:14.20    \nframe=   60 fps=4.1 q=26.0 size=       1KiB time=00:00:00.98 bitrate=   5.8kbits/s speed=0.0666x elapsed=0:00:14.75    \nframe=   66 fps=4.3 q=30.0 size=       1KiB time=00:00:01.08 bitrate=   5.3kbits/s speed=0.0708x elapsed=0:00:15.30    \nframe=   69 fps=4.4 q=33.0 size=       1KiB time=00:00:01.13 bitrate=   5.0kbits/s speed=0.0716x elapsed=0:00:15.81    \nframe=   72 fps=4.4 q=30.0 size=       1KiB time=00:00:01.18 bitrate=   4.8kbits/s speed=0.0724x elapsed=0:00:16.34    \nframe=   77 fps=4.6 q=33.0 size=       1KiB time=00:00:01.25 bitrate=   4.6kbits/s speed=0.0739x elapsed=0:00:16.90    \nframe=   81 fps=4.6 q=9.0 size=       1KiB time=00:00:01.33 bitrate=   4.3kbits/s speed=0.0764x elapsed=0:00:17.44    \nframe=   85 fps=4.7 q=33.0 size=       1KiB time=00:00:01.40 bitrate=   4.1kbits/s speed=0.0778x elapsed=0:00:17.99    \nframe=   88 fps=4.7 q=30.0 size=       1KiB time=00:00:01.45 bitrate=   3.9kbits/s speed=0.0782x elapsed=0:00:18.54    \nframe=   92 fps=4.8 q=29.0 size=       1KiB time=00:00:01.51 bitrate=   3.8kbits/s speed=0.0795x elapsed=0:00:19.08    \nframe=   98 fps=5.0 q=33.0 size=       1KiB time=00:00:01.61 bitrate=   3.5kbits/s speed=0.0823x elapsed=0:00:19.63    \nframe=  103 fps=5.1 q=33.0 size=       1KiB time=00:00:01.70 bitrate=   3.4kbits/s speed=0.0842x elapsed=0:00:20.19    \nframe=  106 fps=5.1 q=33.0 size=       1KiB time=00:00:01.75 bitrate=   3.3kbits/s speed=0.0841x elapsed=0:00:20.81    \nframe=  110 fps=5.1 q=31.0 size=       1KiB time=00:00:01.80 bitrate=   3.2kbits/s speed=0.0839x elapsed=0:00:21.46    \nframe=  112 fps=5.1 q=33.0 size=       1KiB time=00:00:01.85 bitrate=   3.1kbits/s speed=0.0838x elapsed=0:00:22.07    \nframe=  116 fps=5.1 q=28.0 size=       1KiB time=00:00:01.90 bitrate=   3.0kbits/s speed=0.084x elapsed=0:00:22.62    \nframe=  118 fps=5.1 q=29.0 size=       1KiB time=00:00:01.95 bitrate=   2.9kbits/s speed=0.0841x elapsed=0:00:23.17    \nframe=  121 fps=5.1 q=20.0 size=       1KiB time=00:00:01.96 bitrate=   2.9kbits/s speed=0.0827x elapsed=0:00:23.76    \nframe=  123 fps=5.0 q=29.0 size=       1KiB time=00:00:02.01 bitrate=   2.8kbits/s speed=0.0827x elapsed=0:00:24.38    \nframe=  127 fps=5.1 q=31.0 size=       1KiB time=00:00:02.10 bitrate=   2.7kbits/s speed=0.084x elapsed=0:00:25.00    \nframe=  130 fps=5.1 q=30.0 size=       1KiB time=00:00:02.13 bitrate=   2.7kbits/s speed=0.0835x elapsed=0:00:25.55    \nframe=  134 fps=5.1 q=32.0 size=       1KiB time=00:00:02.21 bitrate=   2.6kbits/s speed=0.0849x elapsed=0:00:26.11    \nframe=  142 fps=5.3 q=30.0 size=       1KiB time=00:00:02.33 bitrate=   2.4kbits/s speed=0.0875x elapsed=0:00:26.65    \nframe=  148 fps=5.4 q=33.0 size=       1KiB time=00:00:02.45 bitrate=   2.3kbits/s speed=0.0901x elapsed=0:00:27.19    \nframe=  155 fps=5.6 q=35.0 size=       1KiB time=00:00:02.56 bitrate=   2.2kbits/s speed=0.0926x elapsed=0:00:27.72    \nframe=  164 fps=5.8 q=29.0 size=       1KiB time=00:00:02.71 bitrate=   2.1kbits/s speed=0.0961x elapsed=0:00:28.26    \nframe=  171 fps=5.9 q=28.0 size=       1KiB time=00:00:02.81 bitrate=   2.0kbits/s speed=0.0978x elapsed=0:00:28.79    \nframe=  178 fps=6.1 q=27.0 size=       1KiB time=00:00:02.95 bitrate=   1.9kbits/s speed=0.101x elapsed=0:00:29.34    \nframe=  182 fps=6.1 q=26.0 size=       1KiB time=00:00:03.01 bitrate=   1.9kbits/s speed=0.101x elapsed=0:00:29.86    \nframe=  186 fps=6.1 q=28.0 size=       1KiB time=00:00:03.08 bitrate=   1.8kbits/s speed=0.102x elapsed=0:00:30.37    \nframe=  194 fps=6.3 q=31.0 size=       1KiB time=00:00:03.21 bitrate=   1.8kbits/s speed=0.104x elapsed=0:00:30.89    \nframe=  198 fps=6.3 q=30.0 size=       1KiB time=00:00:03.28 bitrate=   1.7kbits/s speed=0.105x elapsed=0:00:31.41    \nframe=  205 fps=6.4 q=30.0 size=       1KiB time=00:00:03.40 bitrate=   1.7kbits/s speed=0.106x elapsed=0:00:31.94    \nframe=  213 fps=6.6 q=31.0 size=       1KiB time=00:00:03.53 bitrate=   1.6kbits/s speed=0.109x elapsed=0:00:32.44    \nframe=  217 fps=6.6 q=22.0 size=       1KiB time=00:00:03.60 bitrate=   1.6kbits/s speed=0.109x elapsed=0:00:32.96    \nframe=  223 fps=6.7 q=32.0 size=       1KiB time=00:00:03.70 bitrate=   1.5kbits/s speed=0.11x elapsed=0:00:33.49    \nframe=  229 fps=6.7 q=32.0 size=       1KiB time=00:00:03.80 bitrate=   1.5kbits/s speed=0.112x elapsed=0:00:34.02    \nframe=  235 fps=6.8 q=31.0 size=       1KiB time=00:00:03.90 bitrate=   1.5kbits/s speed=0.113x elapsed=0:00:34.55    \nframe=  243 fps=6.9 q=31.0 size=       1KiB time=00:00:04.03 bitrate=   1.4kbits/s speed=0.115x elapsed=0:00:35.10    \nframe=  249 fps=7.0 q=23.0 size=       1KiB time=00:00:04.13 bitrate=   1.4kbits/s speed=0.116x elapsed=0:00:35.64    \nframe=  253 fps=7.0 q=31.0 size=       1KiB time=00:00:04.20 bitrate=   1.4kbits/s speed=0.116x elapsed=0:00:36.17    \nframe=  261 fps=7.1 q=31.0 size=       1KiB time=00:00:04.33 bitrate=   1.3kbits/s speed=0.118x elapsed=0:00:36.68    \nframe=  265 fps=7.1 q=24.0 size=       1KiB time=00:00:04.40 bitrate=   1.3kbits/s speed=0.118x elapsed=0:00:37.21    \nframe=  273 fps=7.2 q=17.0 size=       1KiB time=00:00:04.53 bitrate=   1.3kbits/s speed=0.12x elapsed=0:00:37.72    \nframe=  281 fps=7.3 q=29.0 size=       1KiB time=00:00:04.66 bitrate=   1.2kbits/s speed=0.122x elapsed=0:00:38.25    \nframe=  285 fps=7.3 q=35.0 size=       1KiB time=00:00:04.73 bitrate=   1.2kbits/s speed=0.122x elapsed=0:00:38.78    \n[out#0/matroska @ 000001bc48339000] video:1045KiB audio:0KiB subtitle:0KiB other streams:0KiB global headers:0KiB muxing overhead: 0.198599%\nframe=  300 fps=7.7 q=40.0 Lsize=    1047KiB time=00:00:04.98 bitrate=1721.1kbits/s speed=0.128x elapsed=0:00:39.07    \n",
  "seconds": 39.49541902542114,
  "probe_out": {}
}